<svg width="52" height="48" viewBox="0 0 52 48" fill="none" xmlns="http://www.w3.org/2000/svg">
<rect width="52" height="48" rx="4" fill="#1D69E5"/>
<path d="M36 24.0609C36 18.503 31.5242 14 26 14C20.4758 14 16 18.503 16 24.0609C16 29.0824 19.6569 33.2446 24.4375 34V26.9692H21.8972V24.0609H24.4375V21.8442C24.4375 19.3229 25.9294 17.9302 28.2145 17.9302C29.3089 17.9302 30.4532 18.1266 30.4532 18.1266V20.6012H29.1919C27.95 20.6012 27.5625 21.3769 27.5625 22.1724V24.0609H30.3359L29.8923 26.9692H27.5625V34C32.3431 33.2446 36 29.0824 36 24.0609Z" fill="white"/>
</svg>
