<svg width="491" height="367" viewBox="0 0 491 367" fill="none" xmlns="http://www.w3.org/2000/svg">
<path d="M444.969 0H46.0312C20.1387 0 0 21.026 0 45.875V321.125C0 346.93 20.1387 367 46.0312 367H444.969C469.902 367 491 346.93 491 321.125V45.875C491 21.026 469.902 0 444.969 0ZM439.215 321.125H51.7852C47.9492 321.125 46.0312 319.214 46.0312 315.391V51.6094C46.0312 48.7422 47.9492 45.875 51.7852 45.875H439.215C442.092 45.875 444.969 48.7422 444.969 51.6094V315.391C444.969 319.214 442.092 321.125 439.215 321.125ZM122.75 84.1042C100.693 84.1042 84.3906 101.307 84.3906 122.333C84.3906 144.315 100.693 160.562 122.75 160.562C143.848 160.562 161.109 144.315 161.109 122.333C161.109 101.307 143.848 84.1042 122.75 84.1042ZM92.0625 275.25H398.938V198.792L314.547 115.643C309.752 110.865 303.039 110.865 298.244 115.643L184.125 229.375L145.766 192.102C140.971 187.323 134.258 187.323 129.463 192.102L92.0625 229.375V275.25Z" fill="#3C84EC"/>
</svg>
