<svg width="13" height="19" viewBox="0 0 13 19" fill="none" xmlns="http://www.w3.org/2000/svg">
<path d="M10.8283 2.9899C10.101 2.66667 9.37374 2.42424 8.72727 2.26263C8.08081 2.10101 7.35354 2.0202 6.62626 2.0202C5.33333 2.0202 4.36364 2.26263 3.79798 2.74747C3.23232 3.23232 2.82828 3.9596 2.82828 4.76768C2.82828 5.49495 3.07071 6.06061 3.55556 6.46465C4.0404 6.86869 4.92929 7.27273 6.30303 7.67677L7.43434 8C8.9697 8.48485 10.1818 9.13131 10.9899 9.93939C11.798 10.7475 12.202 11.798 12.202 13.0909C12.202 14.6263 11.6364 15.8384 10.5051 16.8081C9.37374 17.7778 7.75758 18.2626 5.65657 18.2626C4.52525 18.2626 3.47475 18.1818 2.50505 18.0202C1.53535 17.8586 0.727273 17.5354 0 17.2121L0.646465 15.1111C1.37374 15.4343 2.10101 15.7576 2.82828 15.9192C3.63636 16.0808 4.44444 16.1616 5.41414 16.1616C6.70707 16.1616 7.67677 15.9192 8.40404 15.4343C9.13131 14.9495 9.45455 14.2222 9.45455 13.2525C9.45455 12.4444 9.21212 11.798 8.64647 11.3131C8.16162 10.9091 7.27273 10.5051 5.9798 10.101L4.76768 9.69697C3.23232 9.21212 2.0202 8.56566 1.29293 7.75758C0.565657 7.0303 0.161616 6.06061 0.161616 4.92929C0.161616 4.20202 0.323232 3.55556 0.646465 2.90909C0.969697 2.34343 1.37374 1.77778 1.93939 1.37374C2.50505 0.969697 3.15151 0.565657 3.87879 0.323232C4.60606 0.0808081 5.41414 0 6.30303 0C7.19192 0 8.08081 0.0808081 8.9697 0.242424C9.85859 0.40404 10.6667 0.646465 11.4747 0.969697L10.8283 2.9899Z" fill="white"/>
</svg>
