<svg width="15" height="19" viewBox="0 0 15 19" fill="none" xmlns="http://www.w3.org/2000/svg">
<path d="M1.86862 1.77778C3.08074 1.13131 4.13124 0.727273 5.10094 0.40404C6.15144 0.161616 7.28276 0 8.41407 0C9.30296 0 10.1918 0.0808081 10.9191 0.323232C11.6464 0.565657 12.3737 0.888889 12.9393 1.37374C13.505 1.85859 13.909 2.50505 14.2323 3.31313C14.5555 4.12121 14.7171 5.17172 14.7171 6.38384V17.9394H12.6969L12.2929 15.7576H12.2121C11.4848 16.6465 10.5959 17.2929 9.62619 17.697C8.6565 18.101 7.60599 18.2626 6.47468 18.2626C5.6666 18.2626 4.85852 18.1818 4.13124 17.9394C3.40397 17.697 2.83831 17.3737 2.27266 16.8889C1.78781 16.404 1.38377 15.9192 1.06053 15.2727C0.737302 14.6263 0.656494 13.9798 0.656494 13.1717C0.656494 12.2828 0.818111 11.3939 1.22215 10.7475C1.62619 10.0202 2.11104 9.45455 2.83831 8.9697C3.56559 8.48485 4.37367 8.16162 5.34336 7.91919C6.31306 7.67677 7.36357 7.59596 8.57569 7.59596H12.1312V6.14141C12.1312 4.60606 11.808 3.55556 11.0807 2.9899C10.3535 2.42424 9.46458 2.10101 8.25246 2.10101C7.52518 2.10101 6.7171 2.18182 5.82821 2.42424C4.93932 2.66667 3.96963 3.07071 2.83831 3.63636L1.86862 1.77778ZM12.1312 9.45455H9.22215C7.12114 9.53535 5.6666 9.85859 4.77771 10.5859C3.88882 11.2323 3.48478 12.1212 3.48478 13.0909C3.48478 14.303 3.88882 15.1111 4.61609 15.596C5.34336 16.0808 6.23225 16.3232 7.20195 16.3232C8.09084 16.3232 8.97973 16.0808 9.86862 15.6768C10.7575 15.2727 11.5656 14.5455 12.2121 13.6566L12.1312 9.45455Z" fill="white"/>
</svg>
